<?xml version="1.0" encoding="UTF-8"?>
<svg width="225px" height="48px" viewBox="0 0 225 48" version="1.1" xmlns="http://www.w3.org/2000/svg" xmlns:xlink="http://www.w3.org/1999/xlink">
    <!-- Generator: Sketch 53.2 (72643) - https://sketchapp.com -->
    <title>Group</title>
    <desc>Created with Sketch.</desc>
    <g id="Page-1" stroke="none" stroke-width="1" fill="none" fill-rule="evenodd">
        <g id="VP_PANT">
            <g id="Group" transform="translate(0.757000, 1.066708)">
                <polyline id="Fill-1" fill="#868D8F" points="7.08 20.1682918 0 20.1682918 9.335 37.9702918 13.361 37.9702918 22.662 20.1682918 15.582 20.1682918 11.348 29.2952918 7.08 20.1682918"></polyline>
                <path d="M27.578,26.4842918 C27.96,24.6442918 29.487,23.6732918 31.326,23.6732918 C33.027,23.6732918 34.589,24.7832918 34.901,26.4842918 L27.578,26.4842918 Z M40.766,29.4682918 C40.766,23.3952918 37.191,19.5782918 31.014,19.5782918 C25.219,19.5782918 21.158,23.1522918 21.158,29.0862918 C21.158,35.2292918 25.566,38.5602918 31.465,38.5602918 C35.526,38.5602918 39.516,36.6522918 40.523,32.4532918 L34.45,32.4532918 C33.756,33.6322918 32.784,34.0842918 31.431,34.0842918 C28.828,34.0842918 27.474,32.6952918 27.474,30.1272918 L40.766,30.1272918 L40.766,29.4682918 L40.766,29.4682918 Z" id="Fill-2" fill="#868D8F"></path>
                <polyline id="Fill-3" fill="#868D8F" points="49.499 25.3732918 53.073 25.3732918 53.073 20.1682918 49.499 20.1682918 49.499 14.8242918 43.183 14.8242918 43.183 20.1682918 41.135 20.1682918 41.135 25.3732918 43.183 25.3732918 43.183 37.9702918 49.499 37.9702918 49.499 25.3732918"></polyline>
                <path d="M60.696,20.1682918 L54.381,20.1682918 L54.381,37.9702918 L60.696,37.9702918 L60.696,30.7872918 C60.696,27.7332918 61.564,25.4082918 65.069,25.4082918 C66.041,25.4082918 66.874,25.5122918 67.741,25.9982918 L67.741,19.9252918 L66.527,19.9252918 C64.063,19.9252918 61.981,20.8972918 60.766,23.0832918 L60.696,23.0832918 L60.696,20.1682918" id="Fill-4" fill="#868D8F"></path>
                <path d="M78.179,19.5782918 C72.453,19.5782918 67.455,23.0142918 67.455,29.0862918 C67.455,35.1592918 72.487,38.5602918 78.179,38.5602918 C83.905,38.5602918 88.902,35.1252918 88.902,29.0862918 C88.902,23.0142918 83.905,19.5782918 78.179,19.5782918 Z M78.179,25.0612918 C80.747,25.0612918 82.239,26.9002918 82.239,29.0862918 C82.239,31.3422918 80.747,33.0772918 78.179,33.0772918 C75.611,33.0772918 74.118,31.3422918 74.118,29.0862918 C74.118,26.9002918 75.611,25.0612918 78.179,25.0612918 L78.179,25.0612918 Z" id="Fill-5" fill="#0060A0"></path>
                <path d="M96.805,20.1682918 L90.489,20.1682918 L90.489,46.8542918 L96.805,46.8542918 L96.805,36.2702918 C98.159,37.8322918 100.276,38.5602918 102.323,38.5602918 C107.598,38.5602918 111.242,34.2572918 111.242,29.1212918 C111.242,24.0202918 107.564,19.5782918 102.254,19.5782918 C100.172,19.5782918 98.02,20.4112918 96.875,22.1812918 L96.805,22.1812918 L96.805,20.1682918 Z M100.658,25.0612918 C103.225,25.0612918 104.718,26.9002918 104.718,29.0862918 C104.718,31.3422918 103.225,33.0772918 100.658,33.0772918 C98.089,33.0772918 96.597,31.3422918 96.597,29.0862918 C96.597,26.9002918 98.089,25.0612918 100.658,25.0612918 L100.658,25.0612918 Z" id="Fill-6" fill="#868D8F"></path>
                <path d="M122.958,25.0612918 C125.526,25.0612918 127.018,26.9002918 127.018,29.0862918 C127.018,31.3422918 125.526,33.0772918 122.958,33.0772918 C120.39,33.0772918 118.897,31.3422918 118.897,29.0862918 C118.897,26.9002918 120.39,25.0612918 122.958,25.0612918 Z M133.126,20.1682918 L126.81,20.1682918 L126.81,21.9032918 C125.491,20.3412918 123.34,19.5782918 121.292,19.5782918 C116.017,19.5782918 112.373,23.9502918 112.373,29.0522918 C112.373,34.1532918 116.086,38.5602918 121.361,38.5602918 C123.444,38.5602918 125.63,37.7622918 126.741,35.9922918 L126.81,35.9922918 L126.81,37.9702918 L133.126,37.9702918 L133.126,20.1682918 L133.126,20.1682918 Z" id="Fill-7" fill="#868D8F"></path>
                <path d="M148.763,20.6192918 C147.514,19.9252918 146.056,19.5782918 144.599,19.5782918 C139.011,19.5782918 134.639,23.5342918 134.639,29.2602918 C134.639,34.6392918 139.046,38.5602918 144.321,38.5602918 C145.848,38.5602918 147.375,38.2482918 148.763,37.5542918 L148.763,32.2102918 C147.93,32.9732918 146.716,33.4242918 145.605,33.4242918 C143.002,33.4242918 141.163,31.6202918 141.163,29.0522918 C141.163,26.5882918 143.072,24.7142918 145.501,24.7142918 C146.716,24.7142918 147.826,25.2692918 148.763,25.9632918 L148.763,20.6192918" id="Fill-8" fill="#868D8F"></path>
                <polyline id="Fill-9" fill="#868D8F" points="157.256 9.16729177 150.94 9.16729177 150.94 37.9702918 157.256 37.9702918 157.256 30.7172918 164.162 37.9702918 173.011 37.9702918 163.537 28.3922918 172.456 20.1682918 163.815 20.1682918 157.256 26.5882918 157.256 9.16729177"></polyline>
                <path d="M212.098,6.09329177 C213.988,9.87229177 213.253,14.7032918 210.418,17.8522918 C212.203,17.5372918 214.408,17.5372918 215.983,18.1672918 C219.973,19.4272918 223.123,23.1022918 223.438,27.5122918 C223.858,31.7122918 221.653,35.5972918 218.083,37.6972918 C215.458,39.2722918 211.363,39.5872918 208.528,38.1172918 C205.693,36.8572918 203.593,34.5472918 202.648,31.6072918 C202.438,32.0272918 202.228,32.4472918 202.123,32.8672918 C200.233,36.6472918 196.453,39.1672918 192.148,39.0622918 C187.633,38.9572918 183.748,36.1222918 182.278,31.9222918 C180.807,28.1422918 181.963,23.6272918 184.797,20.7922918 C187.318,18.2722918 190.783,17.2222918 194.458,17.8522918 C191.938,15.1222918 190.993,10.7132918 192.253,7.24729177 C193.723,3.15329177 197.713,0.108291769 202.018,0.00329176931 C206.428,-0.101708231 210.313,2.31329177 212.098,6.09329177 Z" id="Fill-10" fill="#0060A0"></path>
                <path d="M212.098,6.09329177 C213.988,9.87229177 213.253,14.7032918 210.418,17.8522918 C212.203,17.5372918 214.408,17.5372918 215.983,18.1672918 C219.973,19.4272918 223.123,23.1022918 223.438,27.5122918 C223.858,31.7122918 221.653,35.5972918 218.083,37.6972918 C215.458,39.2722918 211.363,39.5872918 208.528,38.1172918 C205.693,36.8572918 203.593,34.5472918 202.648,31.6072918 C202.438,32.0272918 202.228,32.4472918 202.123,32.8672918 C200.233,36.6472918 196.453,39.1672918 192.148,39.0622918 C187.633,38.9572918 183.748,36.1222918 182.278,31.9222918 C180.807,28.1422918 181.963,23.6272918 184.797,20.7922918 C187.318,18.2722918 190.783,17.2222918 194.458,17.8522918 C191.938,15.1222918 190.993,10.7132918 192.253,7.24729177 C193.723,3.15329177 197.713,0.108291769 202.018,0.00329176931 C206.428,-0.101708231 210.313,2.31329177 212.098,6.09329177 Z" id="Stroke-11" stroke="#0060A0" stroke-width="0.315"></path>
                <polygon id="Fill-12" fill="#FFFFFE" points="206.743 24.8872918 198.343 24.8872918 202.438 17.6422918"></polygon>
                <polygon id="Stroke-13" stroke="#0060A0" stroke-width="0.42" points="206.743 24.8872918 198.343 24.8872918 202.438 17.6422918"></polygon>
                <path d="M214.513,25.3072918 C215.668,26.0422918 216.403,27.4072918 216.193,28.8772918 C216.088,30.2422918 215.038,31.3972918 213.883,31.8172918 C212.518,32.1322918 211.258,31.7122918 210.418,30.8722918 L209.893,30.2422918 L206.848,24.9922918 L206.848,24.8872918 L211.783,24.8872918 C212.833,24.8872918 213.883,24.8872918 214.513,25.3072918" id="Fill-14" fill="#FFFFFE"></path>
                <path d="M198.133,25.0972918 L195.193,30.2422918 C194.458,31.3972918 193.093,32.0272918 191.623,31.8172918 C190.468,31.6072918 189.523,30.7672918 188.998,29.6122918 C188.578,28.5622918 188.788,27.1972918 189.628,26.2522918 C190.258,25.4122918 191.308,24.9922918 192.358,24.9922918 L198.133,24.9922918 L198.133,25.0972918" id="Fill-15" fill="#FFFFFE"></path>
                <path d="M205.588,9.34829177 C206.113,10.3972918 206.008,11.5532918 205.378,12.4972918 L202.543,17.4322918 L202.438,17.4322918 C201.388,15.6472918 200.233,13.8622918 199.288,11.9732918 C198.763,10.9232918 198.973,9.45329177 199.813,8.50729177 C200.758,7.45829177 202.228,6.93329177 203.593,7.45829177 C204.433,7.87729177 205.168,8.50729177 205.588,9.34829177" id="Fill-16" fill="#FFFFFE"></path>
            </g>
        </g>
    </g>
</svg>