<?xml version="1.0" encoding="UTF-8"?>
<svg width="173px" height="174px" viewBox="0 0 173 174" version="1.1" xmlns="http://www.w3.org/2000/svg" xmlns:xlink="http://www.w3.org/1999/xlink">
    <!-- Generator: Sketch 53.2 (72643) - https://sketchapp.com -->
    <title>Group</title>
    <desc>Created with Sketch.</desc>
    <g id="Page-1" stroke="none" stroke-width="1" fill="none" fill-rule="evenodd">
        <g id="VP_PANT" transform="translate(-1.000000, -7.000000)">
            <g id="Group" transform="translate(1.000000, 7.000000)">
                <g id="Group-3" transform="translate(0.000000, 136.000000)">
                    <polyline id="Fill-1" fill="#868D8F" points="7.08 11.001 0 11.001 9.335 28.803 13.361 28.803 22.662 11.001 15.582 11.001 11.348 20.128 7.08 11.001"></polyline>
                    <path d="M27.578,17.317 C27.96,15.477 29.487,14.506 31.326,14.506 C33.027,14.506 34.589,15.616 34.901,17.317 L27.578,17.317 Z M40.766,20.301 C40.766,14.228 37.191,10.411 31.014,10.411 C25.219,10.411 21.158,13.985 21.158,19.919 C21.158,26.062 25.566,29.393 31.465,29.393 C35.526,29.393 39.516,27.485 40.523,23.286 L34.45,23.286 C33.756,24.465 32.784,24.917 31.431,24.917 C28.828,24.917 27.474,23.528 27.474,20.96 L40.766,20.96 L40.766,20.301 L40.766,20.301 Z" id="Fill-2" fill="#868D8F"></path>
                    <polyline id="Fill-3" fill="#868D8F" points="49.499 16.206 53.073 16.206 53.073 11.001 49.499 11.001 49.499 5.657 43.183 5.657 43.183 11.001 41.135 11.001 41.135 16.206 43.183 16.206 43.183 28.803 49.499 28.803 49.499 16.206"></polyline>
                    <path d="M60.696,11.001 L54.381,11.001 L54.381,28.803 L60.696,28.803 L60.696,21.62 C60.696,18.566 61.564,16.241 65.069,16.241 C66.041,16.241 66.874,16.345 67.741,16.831 L67.741,10.758 L66.527,10.758 C64.063,10.758 61.981,11.73 60.766,13.916 L60.696,13.916 L60.696,11.001" id="Fill-4" fill="#868D8F"></path>
                    <path d="M78.179,10.411 C72.453,10.411 67.455,13.847 67.455,19.919 C67.455,25.992 72.487,29.393 78.179,29.393 C83.905,29.393 88.902,25.958 88.902,19.919 C88.902,13.847 83.905,10.411 78.179,10.411 Z M78.179,15.894 C80.747,15.894 82.239,17.733 82.239,19.919 C82.239,22.175 80.747,23.91 78.179,23.91 C75.611,23.91 74.118,22.175 74.118,19.919 C74.118,17.733 75.611,15.894 78.179,15.894 L78.179,15.894 Z" id="Fill-5" fill="#0060A0"></path>
                    <path d="M96.805,11.001 L90.489,11.001 L90.489,37.687 L96.805,37.687 L96.805,27.103 C98.159,28.665 100.276,29.393 102.323,29.393 C107.598,29.393 111.242,25.09 111.242,19.954 C111.242,14.853 107.564,10.411 102.254,10.411 C100.172,10.411 98.02,11.244 96.875,13.014 L96.805,13.014 L96.805,11.001 Z M100.658,15.894 C103.225,15.894 104.718,17.733 104.718,19.919 C104.718,22.175 103.225,23.91 100.658,23.91 C98.089,23.91 96.597,22.175 96.597,19.919 C96.597,17.733 98.089,15.894 100.658,15.894 L100.658,15.894 Z" id="Fill-6" fill="#868D8F"></path>
                    <path d="M122.958,15.894 C125.526,15.894 127.018,17.733 127.018,19.919 C127.018,22.175 125.526,23.91 122.958,23.91 C120.39,23.91 118.897,22.175 118.897,19.919 C118.897,17.733 120.39,15.894 122.958,15.894 Z M133.126,11.001 L126.81,11.001 L126.81,12.736 C125.491,11.174 123.34,10.411 121.292,10.411 C116.017,10.411 112.373,14.783 112.373,19.885 C112.373,24.986 116.086,29.393 121.361,29.393 C123.444,29.393 125.63,28.595 126.741,26.825 L126.81,26.825 L126.81,28.803 L133.126,28.803 L133.126,11.001 L133.126,11.001 Z" id="Fill-7" fill="#868D8F"></path>
                    <path d="M148.763,11.452 C147.514,10.758 146.056,10.411 144.599,10.411 C139.011,10.411 134.639,14.367 134.639,20.093 C134.639,25.472 139.046,29.393 144.321,29.393 C145.848,29.393 147.375,29.081 148.763,28.387 L148.763,23.043 C147.93,23.806 146.716,24.257 145.605,24.257 C143.002,24.257 141.163,22.453 141.163,19.885 C141.163,17.421 143.072,15.547 145.501,15.547 C146.716,15.547 147.826,16.102 148.763,16.796 L148.763,11.452" id="Fill-8" fill="#868D8F"></path>
                    <polyline id="Fill-9" fill="#868D8F" points="157.256 0 150.94 0 150.94 28.803 157.256 28.803 157.256 21.55 164.162 28.803 173.011 28.803 163.537 19.225 172.456 11.001 163.815 11.001 157.256 17.421 157.256 0"></polyline>
                </g>
                <g id="Group-2" transform="translate(22.000000, 0.000000)" fill="#0060A0">
                    <path d="M95.3445947,19.3409681 C101.260523,31.3360474 98.959884,46.6703232 90.0859921,56.6656937 C95.6732573,55.6658392 102.575173,55.6658392 107.505113,57.6655481 C119.994294,61.664966 129.854174,73.3299346 130.840162,87.327897 C132.154813,100.65929 125.252897,112.990828 114.078366,119.656525 C105.8618,124.655797 93.043956,125.655651 84.1700642,120.989664 C75.2961723,116.990246 68.7229191,109.65798 65.7649551,100.326005 C65.1076298,101.659144 64.4503045,102.992284 64.1216418,104.325423 C58.2057139,116.323676 46.3738581,124.322512 32.898689,123.989227 C18.7661945,123.655942 6.60567606,114.657252 2.0043988,101.325859 C-2.60000858,89.327606 1.01841081,74.9963587 9.88917255,65.9976686 C17.7802066,57.9988329 28.6260744,54.6659848 40.1292675,56.6656937 C32.2413637,48.0002884 29.2833997,34.0055001 33.2273516,23.0039269 C37.8286289,10.0089931 50.31781,0.34373336 63.7929792,0.0104485404 C77.596811,-0.322836279 89.7573294,7.34271456 95.3445947,19.3409681 Z M78.5827989,78.9957766 L52.289786,78.9957766 L65.1076298,55.999124 L78.5827989,78.9957766 Z M102.903836,80.3289158 C106.519125,82.6619096 108.819764,86.9946122 108.162438,91.6605997 C107.833776,95.9933023 104.547149,99.6594353 100.93186,100.992575 C96.6592453,101.992429 92.7152934,100.65929 90.0859921,97.9930113 L88.4426788,95.9933023 L78.9114616,79.3290614 L78.9114616,78.9957766 L94.3586067,78.9957766 C97.6452333,78.9957766 100.93186,78.9957766 102.903836,80.3289158 Z M51.6324607,79.6623462 L42.4299062,95.9933023 C40.1292675,99.6594353 35.8566529,101.659144 31.2553757,100.992575 C27.6400864,100.326005 24.6821224,97.6597264 23.0388091,93.9935934 C21.7241585,90.6607452 22.3814838,86.3280426 25.0107851,83.3284792 C26.9827611,80.6622007 30.2693877,79.3290614 33.5560143,79.3290614 L51.6324607,79.3290614 L51.6324607,79.6623462 Z M74.9675097,29.6727975 C76.610823,33.0024715 76.2821603,36.6717787 74.3101843,39.6681679 L65.4362925,55.3325544 L65.1076298,55.3325544 C61.8210032,49.6667125 58.2057139,44.0008705 55.24775,38.0049179 C53.6044367,34.6720697 54.261762,30.0060823 56.8910633,27.0033448 C59.8490272,23.6736707 64.4503045,22.0072466 68.7229191,23.6736707 C71.3522204,25.0036358 73.652859,27.0033448 74.9675097,29.6727975 Z" id="Combined-Shape"></path>
                </g>
            </g>
        </g>
    </g>
</svg>